<?xml version="1.0" encoding="utf-8" standalone="no"?>
<!DOCTYPE svg PUBLIC "-//W3C//DTD SVG 1.1//EN"
  "http://www.w3.org/Graphics/SVG/1.1/DTD/svg11.dtd">
<svg height="288pt" version="1.1" viewBox="0 0 504 288" width="504pt" xmlns="http://www.w3.org/2000/svg" xmlns:xlink="http://www.w3.org/1999/xlink">
 <metadata>
  <rdf:RDF xmlns:cc="http://creativecommons.org/ns#" xmlns:dc="http://purl.org/dc/elements/1.1/" xmlns:rdf="http://www.w3.org/1999/02/22-rdf-syntax-ns#">
   <cc:Work>
    <dc:type rdf:resource="http://purl.org/dc/dcmitype/StillImage"/>
    <dc:date>2023-05-26T14:06:55.694232</dc:date>
    <dc:format>image/svg+xml</dc:format>
    <dc:creator>
     <cc:Agent>
      <dc:title>Matplotlib v3.4.3, https://matplotlib.org/</dc:title>
     </cc:Agent>
    </dc:creator>
   </cc:Work>
  </rdf:RDF>
 </metadata>
 <defs>
  <style type="text/css">*{stroke-linecap:butt;stroke-linejoin:round;}</style>
 </defs>
 <g id="figure_1">
  <g id="patch_1">
   <path d="M 0 288 
L 504 288 
L 504 0 
L 0 0 
z
" style="fill:#ffffff;"/>
  </g>
  <g id="axes_1">
   <g id="patch_2">
    <path d="M 63 256.32 
L 453.6 256.32 
L 453.6 34.56 
L 63 34.56 
z
" style="fill:#ffffff;"/>
   </g>
   <g id="matplotlib.axis_1">
    <g id="xtick_1">
     <g id="line2d_1">
      <defs>
       <path d="M 0 0 
L 0 3.5 
" id="m1c1eb93b8f" style="stroke:#000000;stroke-width:0.8;"/>
      </defs>
      <g>
       <use style="stroke:#000000;stroke-width:0.8;" x="80.754545" xlink:href="#m1c1eb93b8f" y="256.32"/>
      </g>
     </g>
     <g id="text_1">
      <!-- 0 -->
      <g transform="translate(77.573295 270.918437)scale(0.1 -0.1)">
       <defs>
        <path d="M 2034 4250 
Q 1547 4250 1301 3770 
Q 1056 3291 1056 2328 
Q 1056 1369 1301 889 
Q 1547 409 2034 409 
Q 2525 409 2770 889 
Q 3016 1369 3016 2328 
Q 3016 3291 2770 3770 
Q 2525 4250 2034 4250 
z
M 2034 4750 
Q 2819 4750 3233 4129 
Q 3647 3509 3647 2328 
Q 3647 1150 3233 529 
Q 2819 -91 2034 -91 
Q 1250 -91 836 529 
Q 422 1150 422 2328 
Q 422 3509 836 4129 
Q 1250 4750 2034 4750 
z
" id="DejaVuSans-30" transform="scale(0.015625)"/>
       </defs>
       <use xlink:href="#DejaVuSans-30"/>
      </g>
     </g>
    </g>
    <g id="xtick_2">
     <g id="line2d_2">
      <g>
       <use style="stroke:#000000;stroke-width:0.8;" x="152.490083" xlink:href="#m1c1eb93b8f" y="256.32"/>
      </g>
     </g>
     <g id="text_2">
      <!-- 20 -->
      <g transform="translate(146.127583 270.918437)scale(0.1 -0.1)">
       <defs>
        <path d="M 1228 531 
L 3431 531 
L 3431 0 
L 469 0 
L 469 531 
Q 828 903 1448 1529 
Q 2069 2156 2228 2338 
Q 2531 2678 2651 2914 
Q 2772 3150 2772 3378 
Q 2772 3750 2511 3984 
Q 2250 4219 1831 4219 
Q 1534 4219 1204 4116 
Q 875 4013 500 3803 
L 500 4441 
Q 881 4594 1212 4672 
Q 1544 4750 1819 4750 
Q 2544 4750 2975 4387 
Q 3406 4025 3406 3419 
Q 3406 3131 3298 2873 
Q 3191 2616 2906 2266 
Q 2828 2175 2409 1742 
Q 1991 1309 1228 531 
z
" id="DejaVuSans-32" transform="scale(0.015625)"/>
       </defs>
       <use xlink:href="#DejaVuSans-32"/>
       <use x="63.623047" xlink:href="#DejaVuSans-30"/>
      </g>
     </g>
    </g>
    <g id="xtick_3">
     <g id="line2d_3">
      <g>
       <use style="stroke:#000000;stroke-width:0.8;" x="224.22562" xlink:href="#m1c1eb93b8f" y="256.32"/>
      </g>
     </g>
     <g id="text_3">
      <!-- 40 -->
      <g transform="translate(217.86312 270.918437)scale(0.1 -0.1)">
       <defs>
        <path d="M 2419 4116 
L 825 1625 
L 2419 1625 
L 2419 4116 
z
M 2253 4666 
L 3047 4666 
L 3047 1625 
L 3713 1625 
L 3713 1100 
L 3047 1100 
L 3047 0 
L 2419 0 
L 2419 1100 
L 313 1100 
L 313 1709 
L 2253 4666 
z
" id="DejaVuSans-34" transform="scale(0.015625)"/>
       </defs>
       <use xlink:href="#DejaVuSans-34"/>
       <use x="63.623047" xlink:href="#DejaVuSans-30"/>
      </g>
     </g>
    </g>
    <g id="xtick_4">
     <g id="line2d_4">
      <g>
       <use style="stroke:#000000;stroke-width:0.8;" x="295.961157" xlink:href="#m1c1eb93b8f" y="256.32"/>
      </g>
     </g>
     <g id="text_4">
      <!-- 60 -->
      <g transform="translate(289.598657 270.918437)scale(0.1 -0.1)">
       <defs>
        <path d="M 2113 2584 
Q 1688 2584 1439 2293 
Q 1191 2003 1191 1497 
Q 1191 994 1439 701 
Q 1688 409 2113 409 
Q 2538 409 2786 701 
Q 3034 994 3034 1497 
Q 3034 2003 2786 2293 
Q 2538 2584 2113 2584 
z
M 3366 4563 
L 3366 3988 
Q 3128 4100 2886 4159 
Q 2644 4219 2406 4219 
Q 1781 4219 1451 3797 
Q 1122 3375 1075 2522 
Q 1259 2794 1537 2939 
Q 1816 3084 2150 3084 
Q 2853 3084 3261 2657 
Q 3669 2231 3669 1497 
Q 3669 778 3244 343 
Q 2819 -91 2113 -91 
Q 1303 -91 875 529 
Q 447 1150 447 2328 
Q 447 3434 972 4092 
Q 1497 4750 2381 4750 
Q 2619 4750 2861 4703 
Q 3103 4656 3366 4563 
z
" id="DejaVuSans-36" transform="scale(0.015625)"/>
       </defs>
       <use xlink:href="#DejaVuSans-36"/>
       <use x="63.623047" xlink:href="#DejaVuSans-30"/>
      </g>
     </g>
    </g>
    <g id="xtick_5">
     <g id="line2d_5">
      <g>
       <use style="stroke:#000000;stroke-width:0.8;" x="367.696694" xlink:href="#m1c1eb93b8f" y="256.32"/>
      </g>
     </g>
     <g id="text_5">
      <!-- 80 -->
      <g transform="translate(361.334194 270.918437)scale(0.1 -0.1)">
       <defs>
        <path d="M 2034 2216 
Q 1584 2216 1326 1975 
Q 1069 1734 1069 1313 
Q 1069 891 1326 650 
Q 1584 409 2034 409 
Q 2484 409 2743 651 
Q 3003 894 3003 1313 
Q 3003 1734 2745 1975 
Q 2488 2216 2034 2216 
z
M 1403 2484 
Q 997 2584 770 2862 
Q 544 3141 544 3541 
Q 544 4100 942 4425 
Q 1341 4750 2034 4750 
Q 2731 4750 3128 4425 
Q 3525 4100 3525 3541 
Q 3525 3141 3298 2862 
Q 3072 2584 2669 2484 
Q 3125 2378 3379 2068 
Q 3634 1759 3634 1313 
Q 3634 634 3220 271 
Q 2806 -91 2034 -91 
Q 1263 -91 848 271 
Q 434 634 434 1313 
Q 434 1759 690 2068 
Q 947 2378 1403 2484 
z
M 1172 3481 
Q 1172 3119 1398 2916 
Q 1625 2713 2034 2713 
Q 2441 2713 2670 2916 
Q 2900 3119 2900 3481 
Q 2900 3844 2670 4047 
Q 2441 4250 2034 4250 
Q 1625 4250 1398 4047 
Q 1172 3844 1172 3481 
z
" id="DejaVuSans-38" transform="scale(0.015625)"/>
       </defs>
       <use xlink:href="#DejaVuSans-38"/>
       <use x="63.623047" xlink:href="#DejaVuSans-30"/>
      </g>
     </g>
    </g>
    <g id="xtick_6">
     <g id="line2d_6">
      <g>
       <use style="stroke:#000000;stroke-width:0.8;" x="439.432231" xlink:href="#m1c1eb93b8f" y="256.32"/>
      </g>
     </g>
     <g id="text_6">
      <!-- 100 -->
      <g transform="translate(429.888481 270.918437)scale(0.1 -0.1)">
       <defs>
        <path d="M 794 531 
L 1825 531 
L 1825 4091 
L 703 3866 
L 703 4441 
L 1819 4666 
L 2450 4666 
L 2450 531 
L 3481 531 
L 3481 0 
L 794 0 
L 794 531 
z
" id="DejaVuSans-31" transform="scale(0.015625)"/>
       </defs>
       <use xlink:href="#DejaVuSans-31"/>
       <use x="63.623047" xlink:href="#DejaVuSans-30"/>
       <use x="127.246094" xlink:href="#DejaVuSans-30"/>
      </g>
     </g>
    </g>
    <g id="text_7">
     <!-- Times (s) -->
     <g transform="translate(235.366406 284.596563)scale(0.1 -0.1)">
      <defs>
       <path d="M -19 4666 
L 3928 4666 
L 3928 4134 
L 2272 4134 
L 2272 0 
L 1638 0 
L 1638 4134 
L -19 4134 
L -19 4666 
z
" id="DejaVuSans-54" transform="scale(0.015625)"/>
       <path d="M 603 3500 
L 1178 3500 
L 1178 0 
L 603 0 
L 603 3500 
z
M 603 4863 
L 1178 4863 
L 1178 4134 
L 603 4134 
L 603 4863 
z
" id="DejaVuSans-69" transform="scale(0.015625)"/>
       <path d="M 3328 2828 
Q 3544 3216 3844 3400 
Q 4144 3584 4550 3584 
Q 5097 3584 5394 3201 
Q 5691 2819 5691 2113 
L 5691 0 
L 5113 0 
L 5113 2094 
Q 5113 2597 4934 2840 
Q 4756 3084 4391 3084 
Q 3944 3084 3684 2787 
Q 3425 2491 3425 1978 
L 3425 0 
L 2847 0 
L 2847 2094 
Q 2847 2600 2669 2842 
Q 2491 3084 2119 3084 
Q 1678 3084 1418 2786 
Q 1159 2488 1159 1978 
L 1159 0 
L 581 0 
L 581 3500 
L 1159 3500 
L 1159 2956 
Q 1356 3278 1631 3431 
Q 1906 3584 2284 3584 
Q 2666 3584 2933 3390 
Q 3200 3197 3328 2828 
z
" id="DejaVuSans-6d" transform="scale(0.015625)"/>
       <path d="M 3597 1894 
L 3597 1613 
L 953 1613 
Q 991 1019 1311 708 
Q 1631 397 2203 397 
Q 2534 397 2845 478 
Q 3156 559 3463 722 
L 3463 178 
Q 3153 47 2828 -22 
Q 2503 -91 2169 -91 
Q 1331 -91 842 396 
Q 353 884 353 1716 
Q 353 2575 817 3079 
Q 1281 3584 2069 3584 
Q 2775 3584 3186 3129 
Q 3597 2675 3597 1894 
z
M 3022 2063 
Q 3016 2534 2758 2815 
Q 2500 3097 2075 3097 
Q 1594 3097 1305 2825 
Q 1016 2553 972 2059 
L 3022 2063 
z
" id="DejaVuSans-65" transform="scale(0.015625)"/>
       <path d="M 2834 3397 
L 2834 2853 
Q 2591 2978 2328 3040 
Q 2066 3103 1784 3103 
Q 1356 3103 1142 2972 
Q 928 2841 928 2578 
Q 928 2378 1081 2264 
Q 1234 2150 1697 2047 
L 1894 2003 
Q 2506 1872 2764 1633 
Q 3022 1394 3022 966 
Q 3022 478 2636 193 
Q 2250 -91 1575 -91 
Q 1294 -91 989 -36 
Q 684 19 347 128 
L 347 722 
Q 666 556 975 473 
Q 1284 391 1588 391 
Q 1994 391 2212 530 
Q 2431 669 2431 922 
Q 2431 1156 2273 1281 
Q 2116 1406 1581 1522 
L 1381 1569 
Q 847 1681 609 1914 
Q 372 2147 372 2553 
Q 372 3047 722 3315 
Q 1072 3584 1716 3584 
Q 2034 3584 2315 3537 
Q 2597 3491 2834 3397 
z
" id="DejaVuSans-73" transform="scale(0.015625)"/>
       <path id="DejaVuSans-20" transform="scale(0.015625)"/>
       <path d="M 1984 4856 
Q 1566 4138 1362 3434 
Q 1159 2731 1159 2009 
Q 1159 1288 1364 580 
Q 1569 -128 1984 -844 
L 1484 -844 
Q 1016 -109 783 600 
Q 550 1309 550 2009 
Q 550 2706 781 3412 
Q 1013 4119 1484 4856 
L 1984 4856 
z
" id="DejaVuSans-28" transform="scale(0.015625)"/>
       <path d="M 513 4856 
L 1013 4856 
Q 1481 4119 1714 3412 
Q 1947 2706 1947 2009 
Q 1947 1309 1714 600 
Q 1481 -109 1013 -844 
L 513 -844 
Q 928 -128 1133 580 
Q 1338 1288 1338 2009 
Q 1338 2731 1133 3434 
Q 928 4138 513 4856 
z
" id="DejaVuSans-29" transform="scale(0.015625)"/>
      </defs>
      <use xlink:href="#DejaVuSans-54"/>
      <use x="57.958984" xlink:href="#DejaVuSans-69"/>
      <use x="85.742188" xlink:href="#DejaVuSans-6d"/>
      <use x="183.154297" xlink:href="#DejaVuSans-65"/>
      <use x="244.677734" xlink:href="#DejaVuSans-73"/>
      <use x="296.777344" xlink:href="#DejaVuSans-20"/>
      <use x="328.564453" xlink:href="#DejaVuSans-28"/>
      <use x="367.578125" xlink:href="#DejaVuSans-73"/>
      <use x="419.677734" xlink:href="#DejaVuSans-29"/>
     </g>
    </g>
   </g>
   <g id="matplotlib.axis_2">
    <g id="ytick_1">
     <g id="line2d_7">
      <defs>
       <path d="M 0 0 
L -3.5 0 
" id="md9f26ce7c5" style="stroke:#000000;stroke-width:0.8;"/>
      </defs>
      <g>
       <use style="stroke:#000000;stroke-width:0.8;" x="63" xlink:href="#md9f26ce7c5" y="244.784976"/>
      </g>
     </g>
     <g id="text_8">
      <!-- 200 -->
      <g transform="translate(36.9125 248.584194)scale(0.1 -0.1)">
       <use xlink:href="#DejaVuSans-32"/>
       <use x="63.623047" xlink:href="#DejaVuSans-30"/>
       <use x="127.246094" xlink:href="#DejaVuSans-30"/>
      </g>
     </g>
    </g>
    <g id="ytick_2">
     <g id="line2d_8">
      <g>
       <use style="stroke:#000000;stroke-width:0.8;" x="63" xlink:href="#md9f26ce7c5" y="217.910067"/>
      </g>
     </g>
     <g id="text_9">
      <!-- 400 -->
      <g transform="translate(36.9125 221.709286)scale(0.1 -0.1)">
       <use xlink:href="#DejaVuSans-34"/>
       <use x="63.623047" xlink:href="#DejaVuSans-30"/>
       <use x="127.246094" xlink:href="#DejaVuSans-30"/>
      </g>
     </g>
    </g>
    <g id="ytick_3">
     <g id="line2d_9">
      <g>
       <use style="stroke:#000000;stroke-width:0.8;" x="63" xlink:href="#md9f26ce7c5" y="191.035159"/>
      </g>
     </g>
     <g id="text_10">
      <!-- 600 -->
      <g transform="translate(36.9125 194.834377)scale(0.1 -0.1)">
       <use xlink:href="#DejaVuSans-36"/>
       <use x="63.623047" xlink:href="#DejaVuSans-30"/>
       <use x="127.246094" xlink:href="#DejaVuSans-30"/>
      </g>
     </g>
    </g>
    <g id="ytick_4">
     <g id="line2d_10">
      <g>
       <use style="stroke:#000000;stroke-width:0.8;" x="63" xlink:href="#md9f26ce7c5" y="164.16025"/>
      </g>
     </g>
     <g id="text_11">
      <!-- 800 -->
      <g transform="translate(36.9125 167.959469)scale(0.1 -0.1)">
       <use xlink:href="#DejaVuSans-38"/>
       <use x="63.623047" xlink:href="#DejaVuSans-30"/>
       <use x="127.246094" xlink:href="#DejaVuSans-30"/>
      </g>
     </g>
    </g>
    <g id="ytick_5">
     <g id="line2d_11">
      <g>
       <use style="stroke:#000000;stroke-width:0.8;" x="63" xlink:href="#md9f26ce7c5" y="137.285342"/>
      </g>
     </g>
     <g id="text_12">
      <!-- 1000 -->
      <g transform="translate(30.55 141.084561)scale(0.1 -0.1)">
       <use xlink:href="#DejaVuSans-31"/>
       <use x="63.623047" xlink:href="#DejaVuSans-30"/>
       <use x="127.246094" xlink:href="#DejaVuSans-30"/>
       <use x="190.869141" xlink:href="#DejaVuSans-30"/>
      </g>
     </g>
    </g>
    <g id="ytick_6">
     <g id="line2d_12">
      <g>
       <use style="stroke:#000000;stroke-width:0.8;" x="63" xlink:href="#md9f26ce7c5" y="110.410433"/>
      </g>
     </g>
     <g id="text_13">
      <!-- 1200 -->
      <g transform="translate(30.55 114.209652)scale(0.1 -0.1)">
       <use xlink:href="#DejaVuSans-31"/>
       <use x="63.623047" xlink:href="#DejaVuSans-32"/>
       <use x="127.246094" xlink:href="#DejaVuSans-30"/>
       <use x="190.869141" xlink:href="#DejaVuSans-30"/>
      </g>
     </g>
    </g>
    <g id="ytick_7">
     <g id="line2d_13">
      <g>
       <use style="stroke:#000000;stroke-width:0.8;" x="63" xlink:href="#md9f26ce7c5" y="83.535525"/>
      </g>
     </g>
     <g id="text_14">
      <!-- 1400 -->
      <g transform="translate(30.55 87.334744)scale(0.1 -0.1)">
       <use xlink:href="#DejaVuSans-31"/>
       <use x="63.623047" xlink:href="#DejaVuSans-34"/>
       <use x="127.246094" xlink:href="#DejaVuSans-30"/>
       <use x="190.869141" xlink:href="#DejaVuSans-30"/>
      </g>
     </g>
    </g>
    <g id="ytick_8">
     <g id="line2d_14">
      <g>
       <use style="stroke:#000000;stroke-width:0.8;" x="63" xlink:href="#md9f26ce7c5" y="56.660616"/>
      </g>
     </g>
     <g id="text_15">
      <!-- 1600 -->
      <g transform="translate(30.55 60.459835)scale(0.1 -0.1)">
       <use xlink:href="#DejaVuSans-31"/>
       <use x="63.623047" xlink:href="#DejaVuSans-36"/>
       <use x="127.246094" xlink:href="#DejaVuSans-30"/>
       <use x="190.869141" xlink:href="#DejaVuSans-30"/>
      </g>
     </g>
    </g>
    <g id="text_16">
     <!-- Memory usage (MB) -->
     <g transform="translate(24.470312 195.687656)rotate(-90)scale(0.1 -0.1)">
      <defs>
       <path d="M 628 4666 
L 1569 4666 
L 2759 1491 
L 3956 4666 
L 4897 4666 
L 4897 0 
L 4281 0 
L 4281 4097 
L 3078 897 
L 2444 897 
L 1241 4097 
L 1241 0 
L 628 0 
L 628 4666 
z
" id="DejaVuSans-4d" transform="scale(0.015625)"/>
       <path d="M 1959 3097 
Q 1497 3097 1228 2736 
Q 959 2375 959 1747 
Q 959 1119 1226 758 
Q 1494 397 1959 397 
Q 2419 397 2687 759 
Q 2956 1122 2956 1747 
Q 2956 2369 2687 2733 
Q 2419 3097 1959 3097 
z
M 1959 3584 
Q 2709 3584 3137 3096 
Q 3566 2609 3566 1747 
Q 3566 888 3137 398 
Q 2709 -91 1959 -91 
Q 1206 -91 779 398 
Q 353 888 353 1747 
Q 353 2609 779 3096 
Q 1206 3584 1959 3584 
z
" id="DejaVuSans-6f" transform="scale(0.015625)"/>
       <path d="M 2631 2963 
Q 2534 3019 2420 3045 
Q 2306 3072 2169 3072 
Q 1681 3072 1420 2755 
Q 1159 2438 1159 1844 
L 1159 0 
L 581 0 
L 581 3500 
L 1159 3500 
L 1159 2956 
Q 1341 3275 1631 3429 
Q 1922 3584 2338 3584 
Q 2397 3584 2469 3576 
Q 2541 3569 2628 3553 
L 2631 2963 
z
" id="DejaVuSans-72" transform="scale(0.015625)"/>
       <path d="M 2059 -325 
Q 1816 -950 1584 -1140 
Q 1353 -1331 966 -1331 
L 506 -1331 
L 506 -850 
L 844 -850 
Q 1081 -850 1212 -737 
Q 1344 -625 1503 -206 
L 1606 56 
L 191 3500 
L 800 3500 
L 1894 763 
L 2988 3500 
L 3597 3500 
L 2059 -325 
z
" id="DejaVuSans-79" transform="scale(0.015625)"/>
       <path d="M 544 1381 
L 544 3500 
L 1119 3500 
L 1119 1403 
Q 1119 906 1312 657 
Q 1506 409 1894 409 
Q 2359 409 2629 706 
Q 2900 1003 2900 1516 
L 2900 3500 
L 3475 3500 
L 3475 0 
L 2900 0 
L 2900 538 
Q 2691 219 2414 64 
Q 2138 -91 1772 -91 
Q 1169 -91 856 284 
Q 544 659 544 1381 
z
M 1991 3584 
L 1991 3584 
z
" id="DejaVuSans-75" transform="scale(0.015625)"/>
       <path d="M 2194 1759 
Q 1497 1759 1228 1600 
Q 959 1441 959 1056 
Q 959 750 1161 570 
Q 1363 391 1709 391 
Q 2188 391 2477 730 
Q 2766 1069 2766 1631 
L 2766 1759 
L 2194 1759 
z
M 3341 1997 
L 3341 0 
L 2766 0 
L 2766 531 
Q 2569 213 2275 61 
Q 1981 -91 1556 -91 
Q 1019 -91 701 211 
Q 384 513 384 1019 
Q 384 1609 779 1909 
Q 1175 2209 1959 2209 
L 2766 2209 
L 2766 2266 
Q 2766 2663 2505 2880 
Q 2244 3097 1772 3097 
Q 1472 3097 1187 3025 
Q 903 2953 641 2809 
L 641 3341 
Q 956 3463 1253 3523 
Q 1550 3584 1831 3584 
Q 2591 3584 2966 3190 
Q 3341 2797 3341 1997 
z
" id="DejaVuSans-61" transform="scale(0.015625)"/>
       <path d="M 2906 1791 
Q 2906 2416 2648 2759 
Q 2391 3103 1925 3103 
Q 1463 3103 1205 2759 
Q 947 2416 947 1791 
Q 947 1169 1205 825 
Q 1463 481 1925 481 
Q 2391 481 2648 825 
Q 2906 1169 2906 1791 
z
M 3481 434 
Q 3481 -459 3084 -895 
Q 2688 -1331 1869 -1331 
Q 1566 -1331 1297 -1286 
Q 1028 -1241 775 -1147 
L 775 -588 
Q 1028 -725 1275 -790 
Q 1522 -856 1778 -856 
Q 2344 -856 2625 -561 
Q 2906 -266 2906 331 
L 2906 616 
Q 2728 306 2450 153 
Q 2172 0 1784 0 
Q 1141 0 747 490 
Q 353 981 353 1791 
Q 353 2603 747 3093 
Q 1141 3584 1784 3584 
Q 2172 3584 2450 3431 
Q 2728 3278 2906 2969 
L 2906 3500 
L 3481 3500 
L 3481 434 
z
" id="DejaVuSans-67" transform="scale(0.015625)"/>
       <path d="M 1259 2228 
L 1259 519 
L 2272 519 
Q 2781 519 3026 730 
Q 3272 941 3272 1375 
Q 3272 1813 3026 2020 
Q 2781 2228 2272 2228 
L 1259 2228 
z
M 1259 4147 
L 1259 2741 
L 2194 2741 
Q 2656 2741 2882 2914 
Q 3109 3088 3109 3444 
Q 3109 3797 2882 3972 
Q 2656 4147 2194 4147 
L 1259 4147 
z
M 628 4666 
L 2241 4666 
Q 2963 4666 3353 4366 
Q 3744 4066 3744 3513 
Q 3744 3084 3544 2831 
Q 3344 2578 2956 2516 
Q 3422 2416 3680 2098 
Q 3938 1781 3938 1306 
Q 3938 681 3513 340 
Q 3088 0 2303 0 
L 628 0 
L 628 4666 
z
" id="DejaVuSans-42" transform="scale(0.015625)"/>
      </defs>
      <use xlink:href="#DejaVuSans-4d"/>
      <use x="86.279297" xlink:href="#DejaVuSans-65"/>
      <use x="147.802734" xlink:href="#DejaVuSans-6d"/>
      <use x="245.214844" xlink:href="#DejaVuSans-6f"/>
      <use x="306.396484" xlink:href="#DejaVuSans-72"/>
      <use x="347.509766" xlink:href="#DejaVuSans-79"/>
      <use x="406.689453" xlink:href="#DejaVuSans-20"/>
      <use x="438.476562" xlink:href="#DejaVuSans-75"/>
      <use x="501.855469" xlink:href="#DejaVuSans-73"/>
      <use x="553.955078" xlink:href="#DejaVuSans-61"/>
      <use x="615.234375" xlink:href="#DejaVuSans-67"/>
      <use x="678.710938" xlink:href="#DejaVuSans-65"/>
      <use x="740.234375" xlink:href="#DejaVuSans-20"/>
      <use x="772.021484" xlink:href="#DejaVuSans-28"/>
      <use x="811.035156" xlink:href="#DejaVuSans-4d"/>
      <use x="897.314453" xlink:href="#DejaVuSans-42"/>
      <use x="965.917969" xlink:href="#DejaVuSans-29"/>
     </g>
    </g>
   </g>
   <g id="line2d_15">
    <path clip-path="url(#pd4376be18a)" d="M 80.754545 246.24 
L 84.341322 244.453763 
L 87.928099 244.435917 
L 91.514876 244.422794 
L 95.101653 244.409672 
L 98.68843 244.409672 
L 102.275207 244.407572 
L 105.861983 244.405997 
L 109.44876 244.401273 
L 113.035537 244.397074 
L 116.622314 244.397074 
L 120.209091 244.397074 
L 123.795868 244.397074 
L 127.382645 244.397074 
L 130.969421 244.397074 
L 134.556198 244.158244 
L 138.142975 243.752496 
L 141.729752 243.752496 
L 145.316529 243.752496 
L 148.903306 243.752496 
L 152.490083 243.749872 
L 156.07686 243.749872 
L 159.663636 243.749872 
L 163.250413 243.749872 
L 166.83719 243.749872 
L 170.423967 243.749872 
L 174.010744 243.749872 
L 177.597521 243.749872 
L 181.184298 243.749872 
L 184.771074 243.749872 
L 188.357851 243.749872 
L 191.944628 243.749872 
L 195.531405 243.749872 
L 199.118182 243.749872 
L 202.704959 243.749872 
L 206.291736 243.749872 
L 209.878512 243.749872 
L 213.465289 243.749872 
L 217.052066 243.749872 
L 220.638843 243.749872 
L 224.22562 243.749872 
L 227.812397 243.749872 
L 231.399174 243.749872 
L 234.98595 243.749872 
L 238.572727 243.749872 
L 242.159504 243.749872 
L 245.746281 243.749872 
L 249.333058 243.749872 
L 252.919835 243.749872 
L 256.506612 243.749872 
L 260.093388 243.749872 
L 263.680165 243.620746 
L 267.266942 243.468 
L 270.853719 243.468 
L 274.440496 243.468 
L 278.027273 243.468 
L 281.61405 243.468 
L 285.200826 243.468 
L 288.787603 243.468 
L 292.37438 243.468 
L 295.961157 243.468 
L 299.547934 243.468 
L 303.134711 243.468 
L 306.721488 243.468 
L 310.308264 243.468 
L 313.895041 243.468 
L 317.481818 243.468 
L 321.068595 243.468 
L 324.655372 243.468 
L 328.242149 243.468 
L 331.828926 243.468 
L 335.415702 243.468 
L 339.002479 243.468 
L 342.589256 243.468 
L 346.176033 243.468 
L 349.76281 243.468 
L 353.349587 243.468 
L 356.936364 243.468 
L 360.52314 243.468 
L 364.109917 243.468 
L 367.696694 243.468 
L 371.283471 243.468 
L 374.870248 243.468 
L 378.457025 243.468 
L 382.043802 243.468 
L 385.630579 243.468 
L 389.217355 243.468 
L 392.804132 243.468 
L 396.390909 243.468 
L 399.977686 243.468 
L 403.564463 243.468 
L 407.15124 243.468 
L 410.738017 243.468 
L 414.324793 243.468 
L 417.91157 243.468 
L 421.498347 243.468 
L 425.085124 243.468 
L 428.671901 243.468 
L 432.258678 243.468 
L 435.845455 243.468 
" style="fill:none;stroke:#ffa500;stroke-linecap:square;stroke-width:1.5;"/>
   </g>
   <g id="line2d_16">
    <path clip-path="url(#pd4376be18a)" d="M 80.754545 46.782907 
L 84.341322 45.417903 
L 87.928099 45.405961 
L 91.514876 45.395201 
L 95.101653 45.385359 
L 98.68843 45.385359 
L 102.275207 45.38339 
L 105.861983 45.382209 
L 109.44876 45.37906 
L 113.035537 45.375911 
L 116.622314 45.375911 
L 120.209091 45.375911 
L 123.795868 45.375911 
L 127.382645 45.375911 
L 130.969421 45.375911 
L 134.556198 45.144167 
L 138.142975 44.866757 
L 141.729752 44.866757 
L 145.316529 44.866757 
L 148.903306 44.866757 
L 152.490083 44.864789 
L 156.07686 44.864789 
L 159.663636 44.864789 
L 163.250413 44.864789 
L 166.83719 44.864789 
L 170.423967 44.864789 
L 174.010744 44.864789 
L 177.597521 44.864789 
L 181.184298 44.864789 
L 184.771074 44.864789 
L 188.357851 44.864789 
L 191.944628 44.864789 
L 195.531405 44.864789 
L 199.118182 44.864789 
L 202.704959 44.864789 
L 206.291736 44.864789 
L 209.878512 44.864789 
L 213.465289 44.864789 
L 217.052066 44.864789 
L 220.638843 44.864789 
L 224.22562 44.864789 
L 227.812397 44.864789 
L 231.399174 44.864789 
L 234.98595 44.864789 
L 238.572727 44.864789 
L 242.159504 44.864789 
L 245.746281 44.864789 
L 249.333058 44.864789 
L 252.919835 44.864789 
L 256.506612 44.864789 
L 260.093388 44.864789 
L 263.680165 44.738813 
L 267.266942 44.64 
L 270.853719 44.64 
L 274.440496 44.64 
L 278.027273 44.64 
L 281.61405 44.64 
L 285.200826 44.64 
L 288.787603 44.64 
L 292.37438 44.64 
L 295.961157 44.64 
L 299.547934 44.64 
L 303.134711 44.64 
L 306.721488 44.64 
L 310.308264 44.64 
L 313.895041 44.64 
L 317.481818 44.64 
L 321.068595 44.64 
L 324.655372 44.64 
L 328.242149 44.64 
L 331.828926 44.64 
L 335.415702 44.64 
L 339.002479 44.64 
L 342.589256 44.64 
L 346.176033 44.64 
L 349.76281 44.64 
L 353.349587 44.64 
L 356.936364 44.64 
L 360.52314 44.64 
L 364.109917 44.64 
L 367.696694 44.64 
L 371.283471 44.64 
L 374.870248 44.64 
L 378.457025 44.64 
L 382.043802 44.64 
L 385.630579 44.64 
L 389.217355 44.64 
L 392.804132 44.64 
L 396.390909 44.64 
L 399.977686 44.64 
L 403.564463 44.64 
L 407.15124 44.64 
L 410.738017 44.64 
L 414.324793 44.64 
L 417.91157 44.64 
L 421.498347 44.64 
L 425.085124 44.64 
L 428.671901 44.64 
L 432.258678 44.64 
L 435.845455 44.64 
" style="fill:none;stroke:#0000ff;stroke-linecap:square;stroke-width:1.5;"/>
   </g>
   <g id="line2d_17">
    <path clip-path="url(#pd4376be18a)" d="M 80.754545 72.55492 
L 84.341322 72.89873 
L 87.928099 72.902299 
L 91.514876 72.904924 
L 95.101653 72.907548 
L 98.68843 72.907548 
L 102.275207 72.907968 
L 105.861983 72.908283 
L 109.44876 72.909228 
L 113.035537 72.910068 
L 116.622314 72.910068 
L 120.209091 72.910068 
L 123.795868 72.910068 
L 127.382645 72.910068 
L 130.969421 72.910068 
L 134.556198 72.957834 
L 138.142975 73.038983 
L 141.729752 73.038983 
L 145.316529 73.038983 
L 148.903306 73.038983 
L 152.490083 73.039508 
L 156.07686 73.039508 
L 159.663636 73.039508 
L 163.250413 73.039508 
L 166.83719 73.039508 
L 170.423967 73.039508 
L 174.010744 73.039508 
L 177.597521 73.039508 
L 181.184298 73.039508 
L 184.771074 73.039508 
L 188.357851 73.039508 
L 191.944628 73.039508 
L 195.531405 73.039508 
L 199.118182 73.039508 
L 202.704959 73.039508 
L 206.291736 73.039508 
L 209.878512 73.039508 
L 213.465289 73.039508 
L 217.052066 73.039508 
L 220.638843 73.039508 
L 224.22562 73.039508 
L 227.812397 73.039508 
L 231.399174 73.039508 
L 234.98595 73.039508 
L 238.572727 73.039508 
L 242.159504 73.039508 
L 245.746281 73.039508 
L 249.333058 73.039508 
L 252.919835 73.039508 
L 256.506612 73.039508 
L 260.093388 73.039508 
L 263.680165 73.065333 
L 267.266942 73.095883 
L 270.853719 73.095883 
L 274.440496 73.095883 
L 278.027273 73.095883 
L 281.61405 73.095883 
L 285.200826 73.095883 
L 288.787603 73.095883 
L 292.37438 73.095883 
L 295.961157 73.095883 
L 299.547934 73.095883 
L 303.134711 73.095883 
L 306.721488 73.095883 
L 310.308264 73.095883 
L 313.895041 73.095883 
L 317.481818 73.095883 
L 321.068595 73.095883 
L 324.655372 73.095883 
L 328.242149 73.095883 
L 331.828926 73.095883 
L 335.415702 73.095883 
L 339.002479 73.095883 
L 342.589256 73.095883 
L 346.176033 73.095883 
L 349.76281 73.095883 
L 353.349587 73.095883 
L 356.936364 73.095883 
L 360.52314 73.095883 
L 364.109917 73.095883 
L 367.696694 73.095883 
L 371.283471 73.095883 
L 374.870248 73.095883 
L 378.457025 73.095883 
L 382.043802 73.095883 
L 385.630579 73.095883 
L 389.217355 73.095883 
L 392.804132 73.095883 
L 396.390909 73.095883 
L 399.977686 73.095883 
L 403.564463 73.095883 
L 407.15124 73.095883 
L 410.738017 73.095883 
L 414.324793 73.095883 
L 417.91157 73.095883 
L 421.498347 73.095883 
L 425.085124 73.095883 
L 428.671901 73.095883 
L 432.258678 73.095883 
L 435.845455 73.095883 
" style="fill:none;stroke:#008000;stroke-linecap:square;stroke-width:1.5;"/>
   </g>
   <g id="patch_3">
    <path d="M 63 256.32 
L 63 34.56 
" style="fill:none;stroke:#000000;stroke-linecap:square;stroke-linejoin:miter;stroke-width:0.8;"/>
   </g>
   <g id="patch_4">
    <path d="M 453.6 256.32 
L 453.6 34.56 
" style="fill:none;stroke:#000000;stroke-linecap:square;stroke-linejoin:miter;stroke-width:0.8;"/>
   </g>
   <g id="patch_5">
    <path d="M 63 256.32 
L 453.6 256.32 
" style="fill:none;stroke:#000000;stroke-linecap:square;stroke-linejoin:miter;stroke-width:0.8;"/>
   </g>
   <g id="patch_6">
    <path d="M 63 34.56 
L 453.6 34.56 
" style="fill:none;stroke:#000000;stroke-linecap:square;stroke-linejoin:miter;stroke-width:0.8;"/>
   </g>
   <g id="text_17">
    <!-- Memory usage of 4 workers -->
    <g transform="translate(174.977813 28.56)scale(0.12 -0.12)">
     <defs>
      <path d="M 2375 4863 
L 2375 4384 
L 1825 4384 
Q 1516 4384 1395 4259 
Q 1275 4134 1275 3809 
L 1275 3500 
L 2222 3500 
L 2222 3053 
L 1275 3053 
L 1275 0 
L 697 0 
L 697 3053 
L 147 3053 
L 147 3500 
L 697 3500 
L 697 3744 
Q 697 4328 969 4595 
Q 1241 4863 1831 4863 
L 2375 4863 
z
" id="DejaVuSans-66" transform="scale(0.015625)"/>
      <path d="M 269 3500 
L 844 3500 
L 1563 769 
L 2278 3500 
L 2956 3500 
L 3675 769 
L 4391 3500 
L 4966 3500 
L 4050 0 
L 3372 0 
L 2619 2869 
L 1863 0 
L 1184 0 
L 269 3500 
z
" id="DejaVuSans-77" transform="scale(0.015625)"/>
      <path d="M 581 4863 
L 1159 4863 
L 1159 1991 
L 2875 3500 
L 3609 3500 
L 1753 1863 
L 3688 0 
L 2938 0 
L 1159 1709 
L 1159 0 
L 581 0 
L 581 4863 
z
" id="DejaVuSans-6b" transform="scale(0.015625)"/>
     </defs>
     <use xlink:href="#DejaVuSans-4d"/>
     <use x="86.279297" xlink:href="#DejaVuSans-65"/>
     <use x="147.802734" xlink:href="#DejaVuSans-6d"/>
     <use x="245.214844" xlink:href="#DejaVuSans-6f"/>
     <use x="306.396484" xlink:href="#DejaVuSans-72"/>
     <use x="347.509766" xlink:href="#DejaVuSans-79"/>
     <use x="406.689453" xlink:href="#DejaVuSans-20"/>
     <use x="438.476562" xlink:href="#DejaVuSans-75"/>
     <use x="501.855469" xlink:href="#DejaVuSans-73"/>
     <use x="553.955078" xlink:href="#DejaVuSans-61"/>
     <use x="615.234375" xlink:href="#DejaVuSans-67"/>
     <use x="678.710938" xlink:href="#DejaVuSans-65"/>
     <use x="740.234375" xlink:href="#DejaVuSans-20"/>
     <use x="772.021484" xlink:href="#DejaVuSans-6f"/>
     <use x="833.203125" xlink:href="#DejaVuSans-66"/>
     <use x="868.408203" xlink:href="#DejaVuSans-20"/>
     <use x="900.195312" xlink:href="#DejaVuSans-34"/>
     <use x="963.818359" xlink:href="#DejaVuSans-20"/>
     <use x="995.605469" xlink:href="#DejaVuSans-77"/>
     <use x="1077.392578" xlink:href="#DejaVuSans-6f"/>
     <use x="1138.574219" xlink:href="#DejaVuSans-72"/>
     <use x="1179.6875" xlink:href="#DejaVuSans-6b"/>
     <use x="1233.972656" xlink:href="#DejaVuSans-65"/>
     <use x="1295.496094" xlink:href="#DejaVuSans-72"/>
     <use x="1336.609375" xlink:href="#DejaVuSans-73"/>
    </g>
   </g>
   <g id="legend_1">
    <g id="patch_7">
     <path d="M 379.398438 168.957188 
L 446.6 168.957188 
Q 448.6 168.957188 448.6 166.957188 
L 448.6 123.922812 
Q 448.6 121.922812 446.6 121.922812 
L 379.398438 121.922812 
Q 377.398438 121.922812 377.398438 123.922812 
L 377.398438 166.957188 
Q 377.398438 168.957188 379.398438 168.957188 
z
" style="fill:#ffffff;opacity:0.8;stroke:#cccccc;stroke-linejoin:miter;"/>
    </g>
    <g id="line2d_18">
     <path d="M 381.398438 130.02125 
L 401.398438 130.02125 
" style="fill:none;stroke:#ffa500;stroke-linecap:square;stroke-width:1.5;"/>
    </g>
    <g id="line2d_19"/>
    <g id="text_18">
     <!-- USS -->
     <g transform="translate(409.398438 133.52125)scale(0.1 -0.1)">
      <defs>
       <path d="M 556 4666 
L 1191 4666 
L 1191 1831 
Q 1191 1081 1462 751 
Q 1734 422 2344 422 
Q 2950 422 3222 751 
Q 3494 1081 3494 1831 
L 3494 4666 
L 4128 4666 
L 4128 1753 
Q 4128 841 3676 375 
Q 3225 -91 2344 -91 
Q 1459 -91 1007 375 
Q 556 841 556 1753 
L 556 4666 
z
" id="DejaVuSans-55" transform="scale(0.015625)"/>
       <path d="M 3425 4513 
L 3425 3897 
Q 3066 4069 2747 4153 
Q 2428 4238 2131 4238 
Q 1616 4238 1336 4038 
Q 1056 3838 1056 3469 
Q 1056 3159 1242 3001 
Q 1428 2844 1947 2747 
L 2328 2669 
Q 3034 2534 3370 2195 
Q 3706 1856 3706 1288 
Q 3706 609 3251 259 
Q 2797 -91 1919 -91 
Q 1588 -91 1214 -16 
Q 841 59 441 206 
L 441 856 
Q 825 641 1194 531 
Q 1563 422 1919 422 
Q 2459 422 2753 634 
Q 3047 847 3047 1241 
Q 3047 1584 2836 1778 
Q 2625 1972 2144 2069 
L 1759 2144 
Q 1053 2284 737 2584 
Q 422 2884 422 3419 
Q 422 4038 858 4394 
Q 1294 4750 2059 4750 
Q 2388 4750 2728 4690 
Q 3069 4631 3425 4513 
z
" id="DejaVuSans-53" transform="scale(0.015625)"/>
      </defs>
      <use xlink:href="#DejaVuSans-55"/>
      <use x="73.193359" xlink:href="#DejaVuSans-53"/>
      <use x="136.669922" xlink:href="#DejaVuSans-53"/>
     </g>
    </g>
    <g id="line2d_20">
     <path d="M 381.398438 144.699375 
L 401.398438 144.699375 
" style="fill:none;stroke:#0000ff;stroke-linecap:square;stroke-width:1.5;"/>
    </g>
    <g id="line2d_21"/>
    <g id="text_19">
     <!-- PSS -->
     <g transform="translate(409.398438 148.199375)scale(0.1 -0.1)">
      <defs>
       <path d="M 1259 4147 
L 1259 2394 
L 2053 2394 
Q 2494 2394 2734 2622 
Q 2975 2850 2975 3272 
Q 2975 3691 2734 3919 
Q 2494 4147 2053 4147 
L 1259 4147 
z
M 628 4666 
L 2053 4666 
Q 2838 4666 3239 4311 
Q 3641 3956 3641 3272 
Q 3641 2581 3239 2228 
Q 2838 1875 2053 1875 
L 1259 1875 
L 1259 0 
L 628 0 
L 628 4666 
z
" id="DejaVuSans-50" transform="scale(0.015625)"/>
      </defs>
      <use xlink:href="#DejaVuSans-50"/>
      <use x="60.302734" xlink:href="#DejaVuSans-53"/>
      <use x="123.779297" xlink:href="#DejaVuSans-53"/>
     </g>
    </g>
    <g id="line2d_22">
     <path d="M 381.398438 159.3775 
L 401.398438 159.3775 
" style="fill:none;stroke:#008000;stroke-linecap:square;stroke-width:1.5;"/>
    </g>
    <g id="line2d_23"/>
    <g id="text_20">
     <!-- Shared -->
     <g transform="translate(409.398438 162.8775)scale(0.1 -0.1)">
      <defs>
       <path d="M 3513 2113 
L 3513 0 
L 2938 0 
L 2938 2094 
Q 2938 2591 2744 2837 
Q 2550 3084 2163 3084 
Q 1697 3084 1428 2787 
Q 1159 2491 1159 1978 
L 1159 0 
L 581 0 
L 581 4863 
L 1159 4863 
L 1159 2956 
Q 1366 3272 1645 3428 
Q 1925 3584 2291 3584 
Q 2894 3584 3203 3211 
Q 3513 2838 3513 2113 
z
" id="DejaVuSans-68" transform="scale(0.015625)"/>
       <path d="M 2906 2969 
L 2906 4863 
L 3481 4863 
L 3481 0 
L 2906 0 
L 2906 525 
Q 2725 213 2448 61 
Q 2172 -91 1784 -91 
Q 1150 -91 751 415 
Q 353 922 353 1747 
Q 353 2572 751 3078 
Q 1150 3584 1784 3584 
Q 2172 3584 2448 3432 
Q 2725 3281 2906 2969 
z
M 947 1747 
Q 947 1113 1208 752 
Q 1469 391 1925 391 
Q 2381 391 2643 752 
Q 2906 1113 2906 1747 
Q 2906 2381 2643 2742 
Q 2381 3103 1925 3103 
Q 1469 3103 1208 2742 
Q 947 2381 947 1747 
z
" id="DejaVuSans-64" transform="scale(0.015625)"/>
      </defs>
      <use xlink:href="#DejaVuSans-53"/>
      <use x="63.476562" xlink:href="#DejaVuSans-68"/>
      <use x="126.855469" xlink:href="#DejaVuSans-61"/>
      <use x="188.134766" xlink:href="#DejaVuSans-72"/>
      <use x="226.998047" xlink:href="#DejaVuSans-65"/>
      <use x="288.521484" xlink:href="#DejaVuSans-64"/>
     </g>
    </g>
   </g>
  </g>
 </g>
 <defs>
  <clipPath id="pd4376be18a">
   <rect height="221.76" width="390.6" x="63" y="34.56"/>
  </clipPath>
 </defs>
</svg>
